<svg width="90" height="45" viewBox="0 0 90 45" fill="none" xmlns="http://www.w3.org/2000/svg">
<path opacity="0.997" fill-rule="evenodd" clip-rule="evenodd" d="M18.0104 12.6C21.9625 12.6 25.9144 12.6 29.8665 12.6C29.7224 13.3291 29.5759 14.0578 29.427 14.786C25.475 14.7951 21.523 14.7982 17.5709 14.7951C17.7162 14.0632 17.8627 13.3315 18.0104 12.6Z" fill="#1D66C3"/>
<path opacity="0.997" fill-rule="evenodd" clip-rule="evenodd" d="M17.2871 15.9933C21.2392 15.9933 25.1912 15.9933 29.1432 15.9933C29.0014 16.7229 28.8549 17.4516 28.7038 18.1793C24.7517 18.1884 20.7997 18.1915 16.8477 18.1884C16.993 17.4565 17.1395 16.7248 17.2871 15.9933Z" fill="#1D66C3"/>
<path opacity="0.996" fill-rule="evenodd" clip-rule="evenodd" d="M16.5822 19.4872C17.7907 19.4857 18.9992 19.4872 20.2077 19.4918C20.5606 19.5178 20.8841 19.6276 21.1781 19.821C21.5637 20.1195 21.7178 20.5113 21.6405 20.9963C21.553 21.5297 21.2799 21.9367 20.8211 22.2174C20.5332 22.3824 20.228 22.5043 19.9055 22.5832C20.2305 22.6344 20.5265 22.7533 20.7936 22.9399C21.0012 23.1091 21.1247 23.3271 21.1644 23.5939C21.22 24.2109 21.0338 24.7414 20.6059 25.1854C20.1802 25.6068 19.666 25.8401 19.0633 25.8851C18.8563 25.9088 18.6489 25.924 18.4407 25.9308C17.3634 25.9354 16.2862 25.9369 15.2089 25.9354C15.662 23.785 16.1197 21.6356 16.5822 19.4872ZM18.102 20.6396C18.4743 20.6381 18.8466 20.6396 19.2189 20.6442C19.6284 20.6691 19.8131 20.884 19.7728 21.289C19.667 21.8323 19.3358 22.09 18.7794 22.0619C18.4529 22.0695 18.1263 22.068 17.7998 22.0573C17.904 21.5855 18.0047 21.1129 18.102 20.6396ZM17.5526 23.2189C17.9067 23.2173 18.2606 23.2189 18.6146 23.2235C19.2839 23.2674 19.4929 23.6012 19.2418 24.225C19.101 24.4995 18.8767 24.6627 18.5689 24.7143C18.4932 24.7286 18.4169 24.7377 18.34 24.7418C17.9708 24.7463 17.6014 24.7479 17.2322 24.7463C17.3401 24.2374 17.447 23.7283 17.5526 23.2189Z" fill="#1D65C4"/>
<path opacity="0.994" fill-rule="evenodd" clip-rule="evenodd" d="M3.6 24.5543C3.6 24.4323 3.6 24.3103 3.6 24.1884C3.61815 24.0707 3.63646 23.9518 3.65493 23.8317C4.25613 23.8317 4.85732 23.8317 5.45852 23.8317C5.32437 24.4009 5.54714 24.7164 6.12686 24.7784C6.40263 24.8079 6.67119 24.7774 6.93252 24.6869C7.2562 24.5452 7.43015 24.2968 7.45437 23.9415C7.44487 23.7745 7.36553 23.6541 7.21633 23.5802C7.15439 23.5504 7.0903 23.526 7.02407 23.507C6.47131 23.3621 5.91894 23.2158 5.36697 23.068C4.35296 22.7477 4.031 22.0877 4.40109 21.0878C4.54584 20.736 4.7671 20.4418 5.06484 20.2052C5.51277 19.8582 6.01935 19.6432 6.58462 19.5604C7.05897 19.4918 7.53505 19.4781 8.01284 19.5192C8.30194 19.5428 8.5827 19.6038 8.85513 19.7021C9.51662 19.9701 9.7928 20.4595 9.68368 21.1701C9.66985 21.2683 9.65306 21.3659 9.63333 21.4628C9.02908 21.4628 8.42483 21.4628 7.82058 21.4628C7.82946 21.3986 7.84015 21.3346 7.85263 21.2707C7.89723 20.9067 7.74006 20.6918 7.38113 20.6259C7.03482 20.5684 6.72048 20.6415 6.43814 20.8454C6.24032 21.0114 6.15334 21.2233 6.17721 21.4811C6.20147 21.5755 6.25183 21.6532 6.32827 21.7143C6.38984 21.7603 6.45698 21.7969 6.52969 21.8241C7.01372 21.9594 7.49895 22.0905 7.98538 22.2174C8.28611 22.2961 8.57298 22.409 8.84597 22.5558C9.18684 22.7794 9.35774 23.0965 9.35867 23.507C9.3159 24.3858 8.91307 25.0382 8.15017 25.4643C7.56711 25.7616 6.94761 25.9171 6.29165 25.9308C5.84538 25.9528 5.40288 25.9223 4.96414 25.8393C4.62847 25.7768 4.32634 25.6426 4.05776 25.4369C3.79001 25.2022 3.63742 24.908 3.6 24.5543Z" fill="#1D65C4"/>
<path opacity="0.996" fill-rule="evenodd" clip-rule="evenodd" d="M10.9151 19.5055C12.5508 19.5055 14.1865 19.5055 15.8223 19.5055C15.7382 19.9174 15.6528 20.329 15.5659 20.7402C14.5284 20.7402 13.4907 20.7402 12.4531 20.7402C12.3562 21.1849 12.2616 21.63 12.1693 22.0756C13.1428 22.0756 14.1164 22.0756 15.0899 22.0756C15.0025 22.4875 14.914 22.8991 14.8244 23.3104C13.8478 23.3073 12.8712 23.3104 11.8947 23.3195C11.7976 23.7726 11.6999 24.2254 11.6017 24.6777C12.6637 24.6793 13.7257 24.6839 14.7877 24.6915C14.6962 25.1031 14.6046 25.5146 14.5131 25.9262C12.853 25.9384 11.1928 25.9384 9.53262 25.9262C9.99577 23.7864 10.4566 21.6462 10.9151 19.5055Z" fill="#1D65C4"/>
<path opacity="0.995" fill-rule="evenodd" clip-rule="evenodd" d="M22.762 19.5055C23.9675 19.504 25.1728 19.5055 26.3783 19.5101C26.7042 19.5008 27.0186 19.5557 27.3213 19.6747C27.7012 19.8658 27.9072 20.1752 27.9393 20.603C27.963 21.753 27.4121 22.4467 26.2868 22.6838C26.1867 22.7057 26.086 22.724 25.9846 22.7387C25.9717 22.7421 25.9626 22.7497 25.9572 22.7616C26.1586 22.7709 26.3569 22.7998 26.5523 22.8485C26.8978 22.9395 27.0855 23.1636 27.1153 23.5207C27.1247 23.6119 27.1292 23.7034 27.1291 23.7951C27.1085 24.2404 27.0856 24.6854 27.0604 25.1305C27.0517 25.39 27.0547 25.6491 27.0695 25.9079C28.3856 23.7875 29.6994 21.6656 31.0109 19.5421C31.7525 19.5329 32.494 19.5299 33.2356 19.5329C33.6288 21.6677 34.0255 23.8019 34.4258 25.9354C33.7422 25.9384 33.0586 25.9354 32.375 25.9262C32.3148 25.5028 32.2568 25.0791 32.2011 24.6549C31.3313 24.6519 30.4616 24.6549 29.5918 24.664C29.3526 25.0856 29.1146 25.5078 28.8777 25.9308C27.6173 25.9354 26.357 25.9369 25.0966 25.9354C25.0948 25.7675 25.0993 25.5998 25.1103 25.4323C25.1533 24.9446 25.1945 24.4569 25.2339 23.9689C25.2391 23.8411 25.2102 23.7222 25.1469 23.6122C25.0875 23.5406 25.0127 23.4933 24.9226 23.4704C24.8442 23.4523 24.7649 23.4401 24.6846 23.4338C24.529 23.4323 24.3733 23.4308 24.2177 23.4293C24.0585 23.4294 23.9014 23.4354 23.7462 23.4476C23.5659 24.2766 23.3874 25.1059 23.2106 25.9354C22.6002 25.9384 21.9898 25.9354 21.3795 25.9262C21.8433 23.7865 22.304 21.6463 22.762 19.5055ZM24.3367 20.6945C24.6878 20.6911 25.0387 20.6956 25.3896 20.7082C25.5212 20.7149 25.6494 20.7393 25.7741 20.7814C25.9847 20.8713 26.0915 21.0313 26.0945 21.2616C26.0511 21.9133 25.7032 22.244 25.0508 22.254C24.7029 22.2585 24.355 22.2601 24.0071 22.2585C24.117 21.7372 24.2268 21.2159 24.3367 20.6945ZM31.7525 20.7951C31.7616 20.7951 31.7708 20.7951 31.7799 20.7951C31.8642 21.6855 31.9496 22.5757 32.0363 23.4659C31.4503 23.4674 30.8644 23.4659 30.2785 23.4613C30.7759 22.5757 31.2671 21.687 31.7525 20.7951Z" fill="#1D65C4"/>
<path opacity="0.996" fill-rule="evenodd" clip-rule="evenodd" d="M41.1 19.5055C41.1 19.5207 41.1 19.536 41.1 19.5512C41.0119 19.9459 40.9265 20.3423 40.8437 20.7402C39.8061 20.7402 38.7684 20.7402 37.7309 20.7402C37.6363 21.1854 37.5416 21.6305 37.447 22.0756C38.4205 22.0756 39.3941 22.0756 40.3676 22.0756C40.2838 22.4851 40.1953 22.8937 40.1021 23.3012C39.1256 23.3104 38.149 23.3134 37.1724 23.3104C37.0754 23.7672 36.9809 24.2245 36.8886 24.6823C37.9476 24.6823 39.0065 24.6823 40.0655 24.6823C39.9768 25.0993 39.8853 25.5155 39.7908 25.9308C38.1307 25.9369 36.4705 25.9369 34.8103 25.9308C35.2752 23.7901 35.736 21.6483 36.1928 19.5055C37.8285 19.5055 39.4642 19.5055 41.1 19.5055Z" fill="#1D65C4"/>
<path opacity="0.997" fill-rule="evenodd" clip-rule="evenodd" d="M14.9159 27.2616C18.868 27.2616 22.8199 27.2616 26.772 27.2616C26.6279 27.9907 26.4814 28.7193 26.3325 29.4476C22.3805 29.4567 18.4285 29.4597 14.4765 29.4567C14.6218 28.7247 14.7682 27.993 14.9159 27.2616Z" fill="#1D66C3"/>
<path opacity="0.997" fill-rule="evenodd" clip-rule="evenodd" d="M25.6093 32.85C21.6572 32.85 17.7053 32.85 13.7532 32.85C13.8985 32.118 14.045 31.3863 14.1926 30.6549C18.1447 30.6549 22.0967 30.6549 26.0487 30.6549C25.9057 31.3873 25.7592 32.119 25.6093 32.85Z" fill="#1D66C3"/>
<path d="M81.9856 27.3993C82.1021 27.4357 82.2186 27.4612 82.3351 27.4758C82.4517 27.4831 82.5682 27.4867 82.6847 27.4867C82.976 27.4867 83.2564 27.4467 83.5258 27.3666C83.7953 27.2865 84.0465 27.1736 84.2796 27.0279C84.5199 26.875 84.7311 26.6929 84.9131 26.4817C85.1025 26.2633 85.2554 26.0229 85.3719 25.7608L87.5567 27.9564C87.28 28.3497 86.9595 28.7029 86.5954 29.0161C86.2386 29.3292 85.849 29.595 85.4266 29.8135C85.0115 30.032 84.5709 30.1958 84.1048 30.3051C83.646 30.4216 83.1726 30.4798 82.6847 30.4798C81.8618 30.4798 81.0862 30.3269 80.3579 30.021C79.637 29.7152 79.0034 29.2892 78.4572 28.743C77.9183 28.1968 77.4922 27.5486 77.1791 26.7985C76.8659 26.0411 76.7094 25.2109 76.7094 24.3079C76.7094 23.383 76.8659 22.5382 77.1791 21.7736C77.4922 21.0089 77.9183 20.3571 78.4572 19.8182C79.0034 19.2793 79.637 18.8606 80.3579 18.562C81.0862 18.2634 81.8618 18.1141 82.6847 18.1141C83.1726 18.1141 83.6496 18.1724 84.1157 18.2889C84.5818 18.4054 85.0224 18.5729 85.4375 18.7914C85.8599 19.0098 86.2531 19.2793 86.6173 19.5997C86.9814 19.9129 87.3018 20.2661 87.5786 20.6593L81.9856 27.3993ZM83.5149 21.2492C83.3765 21.1983 83.2382 21.1655 83.0998 21.1509C82.9687 21.1363 82.8303 21.1291 82.6847 21.1291C82.2769 21.1291 81.8909 21.2055 81.5268 21.3585C81.1699 21.5041 80.8568 21.7153 80.5873 21.992C80.3252 22.2688 80.1176 22.6038 79.9647 22.997C79.8117 23.383 79.7353 23.82 79.7353 24.3079C79.7353 24.4171 79.7389 24.5409 79.7462 24.6793C79.7608 24.8177 79.779 24.9597 79.8008 25.1053C79.8299 25.2437 79.8627 25.3784 79.8991 25.5095C79.9355 25.6406 79.9829 25.7571 80.0411 25.8591L83.5149 21.2492Z" fill="url(#paint0_linear_160_189)"/>
<path d="M67.73 30.2614H64.7478V18.562H65.4688L66.4519 19.698C66.9326 19.2611 67.4751 18.9261 68.0796 18.6931C68.6913 18.4527 69.3285 18.3326 69.9912 18.3326C70.7049 18.3326 71.3786 18.4709 72.0121 18.7477C72.6457 19.0171 73.1992 19.3922 73.6726 19.8728C74.1459 20.3462 74.5173 20.9033 74.7868 21.5442C75.0635 22.1777 75.2019 22.855 75.2019 23.576V30.2614H72.2197V23.576C72.2197 23.2701 72.1614 22.9825 72.0449 22.713C71.9284 22.4363 71.7682 22.196 71.5643 21.992C71.3603 21.7881 71.1237 21.6279 70.8542 21.5114C70.5848 21.3949 70.2971 21.3366 69.9912 21.3366C69.6781 21.3366 69.3831 21.3949 69.1064 21.5114C68.8297 21.6279 68.5893 21.7881 68.3854 21.992C68.1815 22.196 68.0213 22.4363 67.9048 22.713C67.7883 22.9825 67.73 23.2701 67.73 23.576V30.2614Z" fill="url(#paint1_linear_160_189)"/>
<path d="M63 22.4945C63 23.2374 62.9017 23.9547 62.7051 24.6465C62.5157 25.3311 62.2463 25.9756 61.8967 26.58C61.5471 27.1772 61.1247 27.7234 60.6295 28.2186C60.1343 28.7138 59.5881 29.1399 58.991 29.4967C58.3938 29.8463 57.7493 30.1157 57.0574 30.3051C56.3656 30.5017 55.6483 30.6 54.9055 30.6C54.1626 30.6 53.4453 30.5017 52.7535 30.3051C52.0689 30.1157 51.4244 29.8463 50.82 29.4967C50.2228 29.1399 49.6766 28.7138 49.1814 28.2186C48.6862 27.7234 48.2601 27.1772 47.9033 26.58C47.5537 25.9756 47.2806 25.3311 47.084 24.6465C46.8947 23.9547 46.8 23.2374 46.8 22.4945C46.8 21.7517 46.8947 21.0344 47.084 20.3426C47.2806 19.6507 47.5537 19.0062 47.9033 18.409C48.2601 17.8119 48.6862 17.2657 49.1814 16.7705C49.6766 16.2753 50.2228 15.8529 50.82 15.5033C51.4244 15.1537 52.0689 14.8843 52.7535 14.6949C53.4453 14.4983 54.1626 14.4 54.9055 14.4C55.6483 14.4 56.3656 14.4983 57.0574 14.6949C57.7493 14.8843 58.3938 15.1537 58.991 15.5033C59.5881 15.8529 60.1343 16.2753 60.6295 16.7705C61.1247 17.2657 61.5471 17.8119 61.8967 18.409C62.2463 19.0062 62.5157 19.6507 62.7051 20.3426C62.9017 21.0344 63 21.7517 63 22.4945ZM59.8867 22.4945C59.8867 21.81 59.7556 21.1655 59.4935 20.561C59.2313 19.9493 58.8744 19.4213 58.4229 18.9771C57.9787 18.5256 57.4507 18.1687 56.839 17.9065C56.2345 17.6444 55.59 17.5133 54.9055 17.5133C54.2136 17.5133 53.5655 17.6444 52.961 17.9065C52.3566 18.1687 51.8286 18.5256 51.3771 18.9771C50.9256 19.4213 50.5687 19.9493 50.3065 20.561C50.0444 21.1655 49.9133 21.81 49.9133 22.4945C49.9133 23.1791 50.0444 23.8236 50.3065 24.4281C50.5687 25.0252 50.9256 25.5496 51.3771 26.0011C51.8286 26.4526 52.3566 26.8094 52.961 27.0716C53.5655 27.3338 54.2136 27.4649 54.9055 27.4649C55.59 27.4649 56.2345 27.3338 56.839 27.0716C57.4507 26.8094 57.9787 26.4526 58.4229 26.0011C58.8744 25.5496 59.2313 25.0252 59.4935 24.4281C59.7556 23.8236 59.8867 23.1791 59.8867 22.4945Z" fill="url(#paint2_linear_160_189)"/>
<defs>
<linearGradient id="paint0_linear_160_189" x1="67.2288" y1="8.33685" x2="67.2288" y2="36.0781" gradientUnits="userSpaceOnUse">
<stop stop-color="#83A2DB"/>
<stop offset="1" stop-color="#1D65C4"/>
</linearGradient>
<linearGradient id="paint1_linear_160_189" x1="67.2288" y1="8.33685" x2="67.2288" y2="36.0781" gradientUnits="userSpaceOnUse">
<stop stop-color="#83A2DB"/>
<stop offset="1" stop-color="#1D65C4"/>
</linearGradient>
<linearGradient id="paint2_linear_160_189" x1="67.2288" y1="8.33685" x2="67.2288" y2="36.0781" gradientUnits="userSpaceOnUse">
<stop stop-color="#83A2DB"/>
<stop offset="1" stop-color="#1D65C4"/>
</linearGradient>
</defs>
</svg>
