<svg width="90" height="45" viewBox="0 0 90 45" fill="none" xmlns="http://www.w3.org/2000/svg">
<path opacity="0.997" fill-rule="evenodd" clip-rule="evenodd" d="M18.0104 12.6001C21.9625 12.6001 25.9144 12.6001 29.8665 12.6001C29.7224 13.3292 29.5759 14.0579 29.427 14.7861C25.475 14.7952 21.523 14.7983 17.5709 14.7952C17.7162 14.0633 17.8627 13.3316 18.0104 12.6001Z" fill="white"/>
<path opacity="0.997" fill-rule="evenodd" clip-rule="evenodd" d="M17.2871 15.9934C21.2392 15.9934 25.1912 15.9934 29.1432 15.9934C29.0014 16.723 28.8549 17.4517 28.7038 18.1794C24.7517 18.1885 20.7997 18.1916 16.8477 18.1885C16.993 17.4566 17.1395 16.7249 17.2871 15.9934Z" fill="white"/>
<path opacity="0.996" fill-rule="evenodd" clip-rule="evenodd" d="M16.5822 19.4874C17.7907 19.4859 18.9992 19.4874 20.2077 19.492C20.5606 19.518 20.8841 19.6278 21.1781 19.8212C21.5637 20.1197 21.7178 20.5115 21.6405 20.9965C21.553 21.5299 21.2799 21.9369 20.8211 22.2176C20.5332 22.3826 20.228 22.5045 19.9055 22.5834C20.2305 22.6346 20.5265 22.7535 20.7936 22.9401C21.0012 23.1092 21.1247 23.3273 21.1644 23.5941C21.22 24.2111 21.0338 24.7416 20.6059 25.1856C20.1802 25.607 19.666 25.8403 19.0633 25.8853C18.8563 25.909 18.6489 25.9242 18.4407 25.931C17.3634 25.9356 16.2862 25.9371 15.2089 25.9356C15.662 23.7852 16.1197 21.6358 16.5822 19.4874ZM18.102 20.6398C18.4743 20.6383 18.8466 20.6398 19.2189 20.6444C19.6284 20.6693 19.8131 20.8842 19.7728 21.2892C19.667 21.8325 19.3358 22.0902 18.7794 22.0621C18.4529 22.0697 18.1263 22.0682 17.7998 22.0575C17.904 21.5857 18.0047 21.1131 18.102 20.6398ZM17.5526 23.2191C17.9067 23.2175 18.2606 23.2191 18.6146 23.2237C19.2839 23.2676 19.4929 23.6014 19.2418 24.2252C19.101 24.4997 18.8767 24.6628 18.5689 24.7145C18.4932 24.7288 18.4169 24.7379 18.34 24.742C17.9708 24.7465 17.6014 24.7481 17.2322 24.7465C17.3401 24.2376 17.447 23.7285 17.5526 23.2191Z" fill="white"/>
<path opacity="0.994" fill-rule="evenodd" clip-rule="evenodd" d="M3.6 24.5543C3.6 24.4323 3.6 24.3103 3.6 24.1884C3.61815 24.0707 3.63646 23.9518 3.65493 23.8317C4.25613 23.8317 4.85732 23.8317 5.45852 23.8317C5.32437 24.4009 5.54714 24.7164 6.12686 24.7783C6.40263 24.8079 6.67119 24.7774 6.93252 24.6869C7.2562 24.5452 7.43015 24.2968 7.45437 23.9414C7.44487 23.7745 7.36553 23.6541 7.21633 23.5802C7.15439 23.5504 7.0903 23.526 7.02407 23.507C6.47131 23.3621 5.91894 23.2158 5.36697 23.068C4.35296 22.7477 4.031 22.0877 4.40109 21.0878C4.54584 20.736 4.7671 20.4418 5.06484 20.2052C5.51277 19.8582 6.01935 19.6432 6.58462 19.5604C7.05897 19.4918 7.53505 19.4781 8.01284 19.5192C8.30194 19.5428 8.5827 19.6038 8.85513 19.7021C9.51662 19.9701 9.7928 20.4595 9.68368 21.1701C9.66985 21.2683 9.65306 21.3659 9.63333 21.4628C9.02908 21.4628 8.42483 21.4628 7.82058 21.4628C7.82946 21.3986 7.84015 21.3346 7.85263 21.2707C7.89723 20.9067 7.74006 20.6918 7.38113 20.6259C7.03482 20.5684 6.72048 20.6415 6.43814 20.8454C6.24032 21.0114 6.15334 21.2232 6.17721 21.4811C6.20147 21.5755 6.25183 21.6532 6.32827 21.7143C6.38984 21.7603 6.45698 21.7969 6.52969 21.8241C7.01372 21.9594 7.49895 22.0905 7.98538 22.2174C8.28611 22.2961 8.57298 22.409 8.84597 22.5558C9.18684 22.7794 9.35774 23.0965 9.35867 23.507C9.3159 24.3858 8.91307 25.0382 8.15017 25.4643C7.56711 25.7616 6.94761 25.9171 6.29165 25.9308C5.84538 25.9528 5.40288 25.9223 4.96414 25.8393C4.62847 25.7768 4.32634 25.6426 4.05776 25.4369C3.79001 25.2022 3.63742 24.9079 3.6 24.5543Z" fill="white"/>
<path opacity="0.996" fill-rule="evenodd" clip-rule="evenodd" d="M10.9151 19.5056C12.5508 19.5056 14.1865 19.5056 15.8223 19.5056C15.7382 19.9175 15.6528 20.3291 15.5659 20.7404C14.5284 20.7404 13.4907 20.7404 12.4531 20.7404C12.3562 21.185 12.2616 21.6301 12.1693 22.0757C13.1428 22.0757 14.1164 22.0757 15.0899 22.0757C15.0025 22.4876 14.914 22.8992 14.8244 23.3105C13.8478 23.3075 12.8712 23.3105 11.8947 23.3196C11.7976 23.7727 11.6999 24.2255 11.6017 24.6779C12.6637 24.6794 13.7257 24.684 14.7877 24.6916C14.6962 25.1032 14.6046 25.5148 14.5131 25.9263C12.853 25.9385 11.1928 25.9385 9.53262 25.9263C9.99577 23.7866 10.4566 21.6463 10.9151 19.5056Z" fill="white"/>
<path opacity="0.995" fill-rule="evenodd" clip-rule="evenodd" d="M22.762 19.5057C23.9675 19.5042 25.1728 19.5057 26.3783 19.5103C26.7042 19.501 27.0186 19.5559 27.3213 19.6749C27.7012 19.866 27.9072 20.1754 27.9393 20.6033C27.963 21.7532 27.4121 22.4469 26.2868 22.6841C26.1867 22.7059 26.086 22.7242 25.9846 22.7389C25.9717 22.7423 25.9626 22.7499 25.9572 22.7618C26.1586 22.7711 26.3569 22.8 26.5523 22.8487C26.8978 22.9397 27.0855 23.1638 27.1153 23.5209C27.1247 23.6121 27.1292 23.7036 27.1291 23.7953C27.1085 24.2406 27.0856 24.6856 27.0604 25.1307C27.0517 25.3902 27.0547 25.6493 27.0695 25.9081C28.3856 23.7877 29.6994 21.6658 31.0109 19.5423C31.7525 19.5331 32.494 19.5301 33.2356 19.5331C33.6288 21.6679 34.0255 23.8021 34.4258 25.9356C33.7422 25.9386 33.0586 25.9356 32.375 25.9264C32.3148 25.503 32.2568 25.0793 32.2011 24.6551C31.3313 24.6521 30.4616 24.6551 29.5918 24.6642C29.3526 25.0858 29.1146 25.508 28.8777 25.931C27.6173 25.9356 26.357 25.9371 25.0966 25.9356C25.0948 25.7677 25.0993 25.6 25.1103 25.4325C25.1533 24.9448 25.1945 24.4571 25.2339 23.9691C25.2391 23.8413 25.2102 23.7224 25.1469 23.6124C25.0875 23.5408 25.0127 23.4935 24.9226 23.4706C24.8442 23.4525 24.7649 23.4403 24.6846 23.4341C24.529 23.4325 24.3733 23.431 24.2177 23.4295C24.0585 23.4296 23.9014 23.4356 23.7462 23.4478C23.5659 24.2768 23.3874 25.1061 23.2106 25.9356C22.6002 25.9386 21.9898 25.9356 21.3795 25.9264C21.8433 23.7867 22.304 21.6465 22.762 19.5057ZM24.3367 20.6947C24.6878 20.6913 25.0387 20.6959 25.3896 20.7084C25.5212 20.7151 25.6494 20.7395 25.7741 20.7816C25.9847 20.8715 26.0915 21.0315 26.0945 21.2618C26.0511 21.9135 25.7032 22.2442 25.0508 22.2542C24.7029 22.2587 24.355 22.2603 24.0071 22.2587C24.117 21.7374 24.2268 21.2161 24.3367 20.6947ZM31.7525 20.7953C31.7616 20.7953 31.7708 20.7953 31.7799 20.7953C31.8642 21.6857 31.9496 22.5759 32.0363 23.4661C31.4503 23.4676 30.8644 23.4661 30.2785 23.4615C30.7759 22.5759 31.2671 21.6872 31.7525 20.7953Z" fill="white"/>
<path opacity="0.996" fill-rule="evenodd" clip-rule="evenodd" d="M41.1 19.5056C41.1 19.5209 41.1 19.5361 41.1 19.5513C41.0119 19.946 40.9265 20.3424 40.8437 20.7404C39.8061 20.7404 38.7684 20.7404 37.7309 20.7404C37.6363 21.1855 37.5416 21.6306 37.447 22.0757C38.4205 22.0757 39.3941 22.0757 40.3676 22.0757C40.2838 22.4852 40.1953 22.8938 40.1021 23.3013C39.1256 23.3105 38.149 23.3135 37.1724 23.3105C37.0754 23.7674 36.9809 24.2247 36.8886 24.6824C37.9476 24.6824 39.0065 24.6824 40.0655 24.6824C39.9768 25.0994 39.8853 25.5156 39.7908 25.9309C38.1307 25.937 36.4705 25.937 34.8103 25.9309C35.2752 23.7902 35.736 21.6485 36.1928 19.5056C37.8285 19.5056 39.4642 19.5056 41.1 19.5056Z" fill="white"/>
<path opacity="0.997" fill-rule="evenodd" clip-rule="evenodd" d="M14.9159 27.2617C18.868 27.2617 22.8199 27.2617 26.772 27.2617C26.6279 27.9909 26.4814 28.7195 26.3325 29.4477C22.3805 29.4568 18.4285 29.4599 14.4765 29.4568C14.6218 28.7249 14.7682 27.9932 14.9159 27.2617Z" fill="white"/>
<path opacity="0.997" fill-rule="evenodd" clip-rule="evenodd" d="M25.6093 32.8502C21.6572 32.8502 17.7053 32.8502 13.7532 32.8502C13.8985 32.1182 14.045 31.3865 14.1926 30.655C18.1447 30.655 22.0967 30.655 26.0487 30.655C25.9057 31.3875 25.7592 32.1192 25.6093 32.8502Z" fill="white"/>
<path d="M81.9856 27.3992C82.1021 27.4357 82.2186 27.4612 82.3351 27.4757C82.4517 27.483 82.5682 27.4866 82.6847 27.4866C82.976 27.4866 83.2564 27.4466 83.5258 27.3665C83.7953 27.2864 84.0465 27.1735 84.2796 27.0278C84.5199 26.8749 84.7311 26.6928 84.9131 26.4816C85.1025 26.2632 85.2554 26.0229 85.3719 25.7607L87.5567 27.9564C87.28 28.3496 86.9595 28.7028 86.5954 29.016C86.2386 29.3291 85.849 29.5949 85.4266 29.8134C85.0115 30.0319 84.5709 30.1957 84.1048 30.305C83.646 30.4215 83.1726 30.4798 82.6847 30.4798C81.8618 30.4798 81.0862 30.3268 80.3579 30.021C79.637 29.7151 79.0034 29.2891 78.4572 28.7429C77.9183 28.1967 77.4922 27.5485 77.1791 26.7984C76.8659 26.0411 76.7094 25.2108 76.7094 24.3078C76.7094 23.3829 76.8659 22.5382 77.1791 21.7735C77.4922 21.0088 77.9183 20.357 78.4572 19.8181C79.0034 19.2792 79.637 18.8605 80.3579 18.5619C81.0862 18.2633 81.8618 18.114 82.6847 18.114C83.1726 18.114 83.6496 18.1723 84.1157 18.2888C84.5818 18.4053 85.0224 18.5728 85.4375 18.7913C85.8599 19.0098 86.2531 19.2792 86.6173 19.5997C86.9814 19.9128 87.3018 20.266 87.5786 20.6593L81.9856 27.3992ZM83.5149 21.2491C83.3765 21.1982 83.2382 21.1654 83.0998 21.1508C82.9687 21.1363 82.8303 21.129 82.6847 21.129C82.2769 21.129 81.8909 21.2055 81.5268 21.3584C81.1699 21.504 80.8568 21.7152 80.5873 21.992C80.3252 22.2687 80.1176 22.6037 79.9647 22.997C79.8117 23.3829 79.7353 23.8199 79.7353 24.3078C79.7353 24.4171 79.7389 24.5409 79.7462 24.6792C79.7608 24.8176 79.779 24.9596 79.8008 25.1052C79.8299 25.2436 79.8627 25.3783 79.8991 25.5094C79.9355 25.6405 79.9829 25.757 80.0411 25.859L83.5149 21.2491Z" fill="white"/>
<path d="M67.73 30.2613H64.7478V18.5619H65.4688L66.4519 19.698C66.9326 19.261 67.4751 18.926 68.0796 18.693C68.6913 18.4527 69.3285 18.3325 69.9912 18.3325C70.7049 18.3325 71.3786 18.4709 72.0121 18.7476C72.6457 19.0171 73.1992 19.3921 73.6726 19.8728C74.1459 20.3461 74.5173 20.9033 74.7868 21.5441C75.0635 22.1777 75.2019 22.855 75.2019 23.5759V30.2613H72.2197V23.5759C72.2197 23.2701 72.1614 22.9824 72.0449 22.713C71.9284 22.4362 71.7682 22.1959 71.5643 21.992C71.3603 21.7881 71.1237 21.6279 70.8542 21.5113C70.5848 21.3948 70.2971 21.3366 69.9912 21.3366C69.6781 21.3366 69.3831 21.3948 69.1064 21.5113C68.8297 21.6279 68.5893 21.7881 68.3854 21.992C68.1815 22.1959 68.0213 22.4362 67.9048 22.713C67.7883 22.9824 67.73 23.2701 67.73 23.5759V30.2613Z" fill="white"/>
<path d="M63 22.4944C63 23.2373 62.9017 23.9546 62.7051 24.6464C62.5157 25.331 62.2463 25.9755 61.8967 26.5799C61.5471 27.1771 61.1247 27.7233 60.6295 28.2185C60.1343 28.7137 59.5881 29.1398 58.991 29.4966C58.3938 29.8462 57.7493 30.1156 57.0574 30.305C56.3656 30.5016 55.6483 30.5999 54.9055 30.5999C54.1626 30.5999 53.4453 30.5016 52.7535 30.305C52.0689 30.1156 51.4244 29.8462 50.82 29.4966C50.2228 29.1398 49.6766 28.7137 49.1814 28.2185C48.6862 27.7233 48.2601 27.1771 47.9033 26.5799C47.5537 25.9755 47.2806 25.331 47.084 24.6464C46.8947 23.9546 46.8 23.2373 46.8 22.4944C46.8 21.7516 46.8947 21.0343 47.084 20.3425C47.2806 19.6506 47.5537 19.0061 47.9033 18.4089C48.2601 17.8118 48.6862 17.2656 49.1814 16.7704C49.6766 16.2752 50.2228 15.8528 50.82 15.5032C51.4244 15.1536 52.0689 14.8842 52.7535 14.6948C53.4453 14.4982 54.1626 14.3999 54.9055 14.3999C55.6483 14.3999 56.3656 14.4982 57.0574 14.6948C57.7493 14.8842 58.3938 15.1536 58.991 15.5032C59.5881 15.8528 60.1343 16.2752 60.6295 16.7704C61.1247 17.2656 61.5471 17.8118 61.8967 18.4089C62.2463 19.0061 62.5157 19.6506 62.7051 20.3425C62.9017 21.0343 63 21.7516 63 22.4944ZM59.8867 22.4944C59.8867 21.8099 59.7556 21.1654 59.4935 20.5609C59.2313 19.9492 58.8744 19.4212 58.4229 18.977C57.9787 18.5255 57.4507 18.1686 56.839 17.9064C56.2345 17.6443 55.59 17.5132 54.9055 17.5132C54.2136 17.5132 53.5655 17.6443 52.961 17.9064C52.3566 18.1686 51.8286 18.5255 51.3771 18.977C50.9256 19.4212 50.5687 19.9492 50.3065 20.5609C50.0444 21.1654 49.9133 21.8099 49.9133 22.4944C49.9133 23.179 50.0444 23.8235 50.3065 24.428C50.5687 25.0251 50.9256 25.5495 51.3771 26.001C51.8286 26.4525 52.3566 26.8093 52.961 27.0715C53.5655 27.3337 54.2136 27.4648 54.9055 27.4648C55.59 27.4648 56.2345 27.3337 56.839 27.0715C57.4507 26.8093 57.9787 26.4525 58.4229 26.001C58.8744 25.5495 59.2313 25.0251 59.4935 24.428C59.7556 23.8235 59.8867 23.179 59.8867 22.4944Z" fill="white"/>
</svg>
